<svg xmlns="http://www.w3.org/2000/svg" xmlns:xlink="http://www.w3.org/1999/xlink" contentStyleType="text/css" data-diagram-type="ACTIVITY" height="635px" preserveAspectRatio="none" style="width:441px;height:635px;background:#FFFFFF;" version="1.1" viewBox="0 0 441 635" width="441px" zoomAndPan="magnify"><?plantuml 1.2026.3beta6?><defs/><g><g class="start_entity" data-qualified-name="start" data-source-line="1" id="ent0002"><ellipse cx="346.8" cy="16" fill="#222222" rx="10" ry="10" style="stroke:#222222;stroke-width:1;"/></g><rect fill="#DDDDDD" height="33.9688" rx="12.5" ry="12.5" style="stroke:#181818;stroke-width:0.5;" width="120.207" x="286.7" y="66"/><text fill="#000000" font-family="sans-serif" font-size="12" lengthAdjust="spacing" textLength="100.207" x="296.7" y="87.1387">User creates call</text><rect fill="#DDDDDD" height="47.9375" rx="12.5" ry="12.5" style="stroke:#181818;stroke-width:0.5;" width="140.123" x="276.74" y="139.97"/><text fill="#000000" font-family="sans-serif" font-size="12" lengthAdjust="spacing" textLength="111.8965" x="286.74" y="161.1087">Submitted to node</text><text fill="#000000" font-family="sans-serif" font-size="12" lengthAdjust="spacing" textLength="120.123" x="286.74" y="175.0774">(with 202 response)</text><rect fill="#F1F1F1" height="33.9688" rx="12.5" ry="12.5" style="stroke:#181818;stroke-width:0.5;" width="71.7324" x="265.93" y="227.91"/><text fill="#000000" font-family="sans-serif" font-size="12" lengthAdjust="spacing" textLength="51.7324" x="275.93" y="249.0487">received</text><rect fill="#F1F1F1" height="33.9688" rx="12.5" ry="12.5" style="stroke:#181818;stroke-width:0.5;" width="84.9336" x="149.33" y="301.88"/><text fill="#000000" font-family="sans-serif" font-size="12" lengthAdjust="spacing" textLength="64.9336" x="159.33" y="323.0187">processing</text><g class="entity" data-qualified-name="X" id="ent0011"><polygon fill="#F1F1F1" points="172.8,375.84,184.8,387.84,172.8,399.84,160.8,387.84,172.8,375.84" style="stroke:#181818;stroke-width:0.5;"/></g><rect fill="#F1F1F1" height="33.9688" rx="12.5" ry="12.5" style="stroke:#181818;stroke-width:0.5;" width="61.6016" x="7" y="439.84"/><text fill="#000000" font-family="sans-serif" font-size="12" lengthAdjust="spacing" textLength="41.6016" x="17" y="460.9787">replied</text><rect fill="#F1F1F1" height="33.9688" rx="12.5" ry="12.5" style="stroke:#181818;stroke-width:0.5;" width="49.9473" x="202.83" y="513.81"/><text fill="#000000" font-family="sans-serif" font-size="12" lengthAdjust="spacing" textLength="29.9473" x="212.83" y="534.9487">done</text><rect fill="#F1F1F1" height="33.9688" rx="12.5" ry="12.5" style="stroke:#181818;stroke-width:0.5;" width="130.6777" x="88.46" y="439.84"/><text fill="#000000" font-family="sans-serif" font-size="12" lengthAdjust="spacing" textLength="110.6777" x="98.46" y="460.9787">rejected (canister)</text><rect fill="#F1F1F1" height="33.9688" rx="12.5" ry="12.5" style="stroke:#181818;stroke-width:0.5;" width="125.8965" x="238.85" y="439.84"/><text fill="#000000" font-family="sans-serif" font-size="12" lengthAdjust="spacing" textLength="105.8965" x="248.85" y="460.9787">rejected (system)</text><rect fill="#DDDDDD" height="33.9688" rx="12.5" ry="12.5" style="stroke:#181818;stroke-width:0.5;" width="62.7617" x="243.42" y="587.78"/><text fill="#000000" font-family="sans-serif" font-size="12" lengthAdjust="spacing" textLength="42.7617" x="253.42" y="608.9187">pruned</text><rect fill="#DDDDDD" height="33.9688" rx="12.5" ry="12.5" style="stroke:#181818;stroke-width:0.5;" width="70.127" x="357.74" y="227.91"/><text fill="#000000" font-family="sans-serif" font-size="12" lengthAdjust="spacing" textLength="50.127" x="367.74" y="249.0487">dropped</text><!--link start to User creates call--><g class="link" data-entity-1="ent0002" data-entity-2="ent0003" data-link-type="dependency" data-source-line="1" id="lnk4"><path d="M346.8,26.31 C346.8,36.56 346.8,47.23 346.8,59.66" fill="none" id="start-to-User creates call" style="stroke:#181818;stroke-width:1;"/><polygon fill="#181818" points="346.8,65.66,350.8,56.66,346.8,60.66,342.8,56.66,346.8,65.66" style="stroke:#181818;stroke-width:1;"/></g><!--link User creates call to submit--><g class="link" data-entity-1="ent0003" data-entity-2="ent0005" data-link-type="dependency" data-source-line="2" id="lnk6"><path d="M346.8,100.34 C346.8,111.73 346.8,121.07 346.8,133.71" fill="none" id="User creates call-to-submit" style="stroke:#181818;stroke-width:1;"/><polygon fill="#181818" points="346.8,139.71,350.8,130.71,346.8,134.71,342.8,130.71,346.8,139.71" style="stroke:#181818;stroke-width:1;"/></g><!--link submit to received--><g class="link" data-entity-1="ent0005" data-entity-2="ent0007" data-link-type="dependency" data-source-line="3" id="lnk8"><path d="M333.54,188.2 C326.28,200.94 320.4404,211.1869 313.9504,222.5769" fill="none" id="submit-to-received" style="stroke:#181818;stroke-width:1;"/><polygon fill="#181818" points="310.98,227.79,318.911,221.9506,313.4554,223.4457,311.9602,217.99,310.98,227.79" style="stroke:#181818;stroke-width:1;"/></g><!--link received to processing--><g class="link" data-entity-1="ent0007" data-entity-2="ent0009" data-link-type="dependency" data-source-line="4" id="lnk10"><path d="M276.84,262.22 C258.84,274 239.6613,286.5458 221.6813,298.3058" fill="none" id="received-to-processing" style="stroke:#181818;stroke-width:1;"/><polygon fill="#181818" points="216.66,301.59,226.3815,300.0112,220.8444,298.8531,222.0025,293.3161,216.66,301.59" style="stroke:#181818;stroke-width:1;"/></g><!--link processing to X--><g class="link" data-entity-1="ent0009" data-entity-2="ent0011" data-link-type="dependency" data-source-line="5" id="lnk12"><path d="M187.2,336.07 C183.47,349.24 179.9769,361.5376 176.9569,372.1876" fill="none" id="processing-to-X" style="stroke:#181818;stroke-width:1;"/><polygon fill="#181818" points="175.32,377.96,181.6236,370.3926,176.6841,373.1497,173.927,368.2101,175.32,377.96" style="stroke:#181818;stroke-width:1;"/><text fill="#000000" font-family="sans-serif" font-size="11" lengthAdjust="spacing" textLength="3.4966" x="173.2237" y="365.1426">&#160;</text></g><!--link X to replied--><g class="link" data-entity-1="ent0011" data-entity-2="ent0013" data-link-type="dependency" data-source-line="6" id="lnk14"><path d="M165.16,392.64 C146.97,401.66 105.6847,422.1431 74.1847,437.7731" fill="none" id="X-to-replied" style="stroke:#181818;stroke-width:1;"/><polygon fill="#181818" points="68.81,440.44,78.65,440.0228,73.2889,438.2176,75.0942,432.8565,68.81,440.44" style="stroke:#181818;stroke-width:1;"/></g><!--link replied to done--><g class="link" data-entity-1="ent0013" data-entity-2="ent0015" data-link-type="dependency" data-source-line="7" id="lnk16"><path d="M68.68,469.91 C72.09,471.24 75.52,472.56 78.8,473.81 C122.16,490.41 167.1571,507.2366 196.8371,518.2866" fill="none" id="replied-to-done" style="stroke:#181818;stroke-width:1;"/><polygon fill="#181818" points="202.46,520.38,195.4212,513.4912,197.7742,518.6355,192.63,520.9885,202.46,520.38" style="stroke:#181818;stroke-width:1;"/></g><!--link X to rejected (canister)--><g class="link" data-entity-1="ent0011" data-entity-2="ent0017" data-link-type="dependency" data-source-line="9" id="lnk18"><path d="M170.24,397.88 C167.22,408.52 163.789,420.6282 160.069,433.7282" fill="none" id="X-to-rejected (canister)" style="stroke:#181818;stroke-width:1;"/><polygon fill="#181818" points="158.43,439.5,164.7364,431.935,159.7958,434.6902,157.0407,429.7496,158.43,439.5" style="stroke:#181818;stroke-width:1;"/></g><!--link rejected (canister) to done--><g class="link" data-entity-1="ent0017" data-entity-2="ent0015" data-link-type="dependency" data-source-line="10" id="lnk19"><path d="M170.59,474.16 C182.7,485.94 194.6773,497.5882 206.7773,509.3482" fill="none" id="rejected (canister)-to-done" style="stroke:#181818;stroke-width:1;"/><polygon fill="#181818" points="211.08,513.53,207.4138,504.3889,207.4944,510.0452,201.8382,510.1258,211.08,513.53" style="stroke:#181818;stroke-width:1;"/></g><!--link X to rejected (system)--><g class="link" data-entity-1="ent0011" data-entity-2="ent0020" data-link-type="dependency" data-source-line="12" id="lnk21"><path d="M180.48,392.83 C197.73,401.79 235.0251,421.1549 264.8551,436.6449" fill="none" id="X-to-rejected (system)" style="stroke:#181818;stroke-width:1;"/><polygon fill="#181818" points="270.18,439.41,264.0361,431.7125,265.7426,437.1058,260.3493,438.8123,270.18,439.41" style="stroke:#181818;stroke-width:1;"/></g><!--link received to rejected (system)--><g class="link" data-entity-1="ent0007" data-entity-2="ent0020" data-link-type="dependency" data-source-line="13" id="lnk22"><path d="M301.8,262.36 C301.8,301.61 301.8,394.26 301.8,433.43" fill="none" id="received-to-rejected (system)" style="stroke:#181818;stroke-width:1;"/><polygon fill="#181818" points="301.8,439.43,305.8,430.43,301.8,434.43,297.8,430.43,301.8,439.43" style="stroke:#181818;stroke-width:1;"/></g><!--link rejected (system) to done--><g class="link" data-entity-1="ent0020" data-entity-2="ent0015" data-link-type="dependency" data-source-line="14" id="lnk23"><path d="M285.01,474.16 C272.9,485.94 260.9209,497.5865 248.8309,509.3465" fill="none" id="rejected (system)-to-done" style="stroke:#181818;stroke-width:1;"/><polygon fill="#181818" points="244.53,513.53,253.7704,510.122,248.1141,510.0437,248.1924,504.3874,244.53,513.53" style="stroke:#181818;stroke-width:1;"/></g><!--link received to pruned--><g class="link" data-entity-1="ent0007" data-entity-2="ent0024" data-link-type="dependency" data-source-line="16" id="lnk25"><path d="M322.2,262.19 C349.84,286.26 395.8,334.19 395.8,386.84 C395.8,386.84 395.8,386.84 395.8,457.83 C395.8,516.08 342.9562,560.2276 307.2562,583.9676" fill="none" id="received-to-pruned" style="stroke:#181818;stroke-width:1;"/><polygon fill="#181818" points="302.26,587.29,311.9692,585.6372,306.4235,584.5213,307.5393,578.9756,302.26,587.29" style="stroke:#181818;stroke-width:1;"/></g><!--link submit to dropped--><g class="link" data-entity-1="ent0005" data-entity-2="ent0026" data-link-type="dependency" data-source-line="17" id="lnk27"><path d="M360.35,188.2 C367.77,200.94 373.7582,211.2165 380.3982,222.6065" fill="none" id="submit-to-dropped" style="stroke:#181818;stroke-width:1;"/><polygon fill="#181818" points="383.42,227.79,382.3429,218.0002,380.9018,223.4704,375.4316,222.0293,383.42,227.79" style="stroke:#181818;stroke-width:1;"/></g><!--link done to pruned--><g class="link" data-entity-1="ent0015" data-entity-2="ent0024" data-link-type="dependency" data-source-line="18" id="lnk28"><path d="M238.47,548.13 C246.16,559.91 253.2193,570.7164 260.8993,582.4764" fill="none" id="done-to-pruned" style="stroke:#181818;stroke-width:1;"/><polygon fill="#181818" points="264.18,587.5,262.608,577.7774,261.4461,583.3136,255.9098,582.1517,264.18,587.5" style="stroke:#181818;stroke-width:1;"/></g><?plantuml-src XP1D2i8m48NtdcA8crOeI0_WoXk8uC9DJPuQgPEGIHLlhqtzgmISNHxV-v9CCIkfgXQare90Eg294D9DsogQBjDCQ9Y4hRhTsSO8Gz4HEuCj5rSRZrJFQmeGxrXGAcg49A5PIu26lS2eKUg3qn2nV1XokoULJ1kAH_1a9F2j_VHJPXpZ5Q0LZFaJTF_gGZTi9IAKcUupKHj5b2tBxL4zlwkVV_m1loPptO_5XuxxmtXnQbZdap71UP-1aZYlIGZOsFqT?></g></svg>