<svg xmlns="http://www.w3.org/2000/svg" xmlns:xlink="http://www.w3.org/1999/xlink" contentStyleType="text/css" data-diagram-type="SEQUENCE" height="482px" preserveAspectRatio="none" style="width:437px;height:482px;background:#FFFFFF;" version="1.1" viewBox="0 0 437 482" width="437px" zoomAndPan="magnify"><?plantuml 1.2026.3beta6?><defs/><g><g class="participant-lifeline" data-entity-uid="part1" data-qualified-name="Developer" data-source-line="1" id="part1-lifeline"><g><title>Developer</title><rect fill="#000000" fill-opacity="0.00000" height="319.3594" width="8" x="40.0015" y="81.2969"/><line style="stroke:#181818;stroke-width:0.5;stroke-dasharray:5,5;" x1="44" x2="44" y1="81.2969" y2="400.6563"/></g></g><g class="participant-lifeline" data-entity-uid="part2" data-qualified-name="User" data-source-line="2" id="part2-lifeline"><g><title>User</title><rect fill="#000000" fill-opacity="0.00000" height="319.3594" width="8" x="107.958" y="81.2969"/><line style="stroke:#181818;stroke-width:0.5;stroke-dasharray:5,5;" x1="111.0029" x2="111.0029" y1="81.2969" y2="400.6563"/></g></g><g class="participant-lifeline" data-entity-uid="part3" data-qualified-name="IC" data-source-line="3" id="part3-lifeline"><g><title>Internet Computer</title><rect fill="#000000" fill-opacity="0.00000" height="319.3594" width="8" x="254.9502" y="81.2969"/><line style="stroke:#181818;stroke-width:0.5;stroke-dasharray:5,5;" x1="258.0088" x2="258.0088" y1="81.2969" y2="400.6563"/></g></g><g class="participant-lifeline" data-entity-uid="part4" data-qualified-name="Can1" data-source-line="4" id="part4-lifeline"><g><title>Canister 1</title><rect fill="#000000" fill-opacity="0.00000" height="249.5781" width="8" x="379.7051" y="151.0781"/><line style="stroke:#181818;stroke-width:0.5;stroke-dasharray:5,5;" x1="382.8916" x2="382.8916" y1="151.0781" y2="400.6563"/></g></g><g class="participant participant-head" data-entity-uid="part1" data-qualified-name="Developer" data-source-line="1" id="part1-head"><text fill="#000000" font-family="sans-serif" font-size="14" lengthAdjust="spacing" textLength="72.0029" x="5" y="77.9951">Developer</text><ellipse cx="44.0015" cy="13.5" fill="#E2E2F0" rx="8" ry="8" style="stroke:#181818;stroke-width:0.5;"/><path d="M44.0015,21.5 L44.0015,48.5 M31.0015,29.5 L57.0015,29.5 M44.0015,48.5 L31.0015,63.5 M44.0015,48.5 L57.0015,63.5" fill="none" style="stroke:#181818;stroke-width:0.5;"/></g><g class="participant participant-tail" data-entity-uid="part1" data-qualified-name="Developer" data-source-line="1" id="part1-tail"><text fill="#000000" font-family="sans-serif" font-size="14" lengthAdjust="spacing" textLength="72.0029" x="5" y="412.6514">Developer</text><ellipse cx="44.0015" cy="424.4531" fill="#E2E2F0" rx="8" ry="8" style="stroke:#181818;stroke-width:0.5;"/><path d="M44.0015,432.4531 L44.0015,459.4531 M31.0015,440.4531 L57.0015,440.4531 M44.0015,459.4531 L31.0015,474.4531 M44.0015,459.4531 L57.0015,474.4531" fill="none" style="stroke:#181818;stroke-width:0.5;"/></g><g class="participant participant-head" data-entity-uid="part2" data-qualified-name="User" data-source-line="2" id="part2-head"><text fill="#000000" font-family="sans-serif" font-size="14" lengthAdjust="spacing" textLength="31.9102" x="93.0029" y="77.9951">User</text><ellipse cx="111.958" cy="13.5" fill="#E2E2F0" rx="8" ry="8" style="stroke:#181818;stroke-width:0.5;"/><path d="M111.958,21.5 L111.958,48.5 M98.958,29.5 L124.958,29.5 M111.958,48.5 L98.958,63.5 M111.958,48.5 L124.958,63.5" fill="none" style="stroke:#181818;stroke-width:0.5;"/></g><g class="participant participant-tail" data-entity-uid="part2" data-qualified-name="User" data-source-line="2" id="part2-tail"><text fill="#000000" font-family="sans-serif" font-size="14" lengthAdjust="spacing" textLength="31.9102" x="93.0029" y="412.6514">User</text><ellipse cx="111.958" cy="424.4531" fill="#E2E2F0" rx="8" ry="8" style="stroke:#181818;stroke-width:0.5;"/><path d="M111.958,432.4531 L111.958,459.4531 M98.958,440.4531 L124.958,440.4531 M111.958,459.4531 L98.958,474.4531 M111.958,459.4531 L124.958,474.4531" fill="none" style="stroke:#181818;stroke-width:0.5;"/></g><g class="participant participant-head" data-entity-uid="part3" data-qualified-name="IC" data-source-line="3" id="part3-head"><rect fill="#E2E2F0" height="30.2969" rx="2.5" ry="2.5" style="stroke:#181818;stroke-width:0.5;" width="143.8828" x="187.0088" y="50"/><text fill="#000000" font-family="sans-serif" font-size="14" lengthAdjust="spacing" textLength="129.8828" x="194.0088" y="69.9951">Internet Computer</text></g><g class="participant participant-tail" data-entity-uid="part3" data-qualified-name="IC" data-source-line="3" id="part3-tail"><rect fill="#E2E2F0" height="30.2969" rx="2.5" ry="2.5" style="stroke:#181818;stroke-width:0.5;" width="143.8828" x="187.0088" y="399.6563"/><text fill="#000000" font-family="sans-serif" font-size="14" lengthAdjust="spacing" textLength="129.8828" x="194.0088" y="419.6514">Internet Computer</text></g><g class="participant participant-tail" data-entity-uid="part4" data-qualified-name="Can1" data-source-line="4" id="part4-tail"><rect fill="#E2E2F0" height="30.2969" rx="2.5" ry="2.5" style="stroke:#181818;stroke-width:0.5;" width="85.627" x="340.8916" y="399.6563"/><text fill="#000000" font-family="sans-serif" font-size="14" lengthAdjust="spacing" textLength="71.627" x="347.8916" y="419.6514">Canister 1</text></g><g class="message" data-entity-1="part1" data-entity-2="part3" data-source-line="5" id="msg1"><polygon fill="#181818" points="246.9502,108.4297,256.9502,112.4297,246.9502,116.4297,250.9502,112.4297" style="stroke:#181818;stroke-width:1;"/><line style="stroke:#181818;stroke-width:1;" x1="44.0015" x2="252.9502" y1="112.4297" y2="112.4297"/><text fill="#000000" font-family="sans-serif" font-size="13" lengthAdjust="spacing" textLength="151.0107" x="51.0015" y="107.3638">/submit create canister</text></g><g class="message" data-entity-1="part3" data-entity-2="part4" data-source-line="7" id="msg2"><polygon fill="#181818" points="328.8916,137.5625,338.8916,141.5625,328.8916,145.5625,332.8916,141.5625" style="stroke:#181818;stroke-width:1;"/><line style="stroke:#181818;stroke-width:1;" x1="258.9502" x2="334.8916" y1="141.5625" y2="141.5625"/><text fill="#000000" font-family="sans-serif" font-size="13" lengthAdjust="spacing" textLength="41.5518" x="265.9502" y="136.4966">create</text></g><rect fill="#E2E2F0" height="30.2969" rx="2.5" ry="2.5" style="stroke:#181818;stroke-width:0.5;" width="85.627" x="340.8916" y="120.4297"/><text fill="#000000" font-family="sans-serif" font-size="14" lengthAdjust="spacing" textLength="71.627" x="347.8916" y="140.4248">Canister 1</text><g class="message" data-entity-1="part3" data-entity-2="part1" data-source-line="8" id="msg4"><polygon fill="#181818" points="55.0015,178.8594,45.0015,182.8594,55.0015,186.8594,51.0015,182.8594" style="stroke:#181818;stroke-width:1;"/><line style="stroke:#181818;stroke-width:1;stroke-dasharray:2,2;" x1="49.0015" x2="257.9502" y1="182.8594" y2="182.8594"/><text fill="#000000" font-family="sans-serif" font-size="13" lengthAdjust="spacing" textLength="87.896" x="61.0015" y="177.7935">canister-id=1</text></g><g class="message" data-entity-1="part1" data-entity-2="part3" data-source-line="9" id="msg5"><polygon fill="#181818" points="246.9502,207.9922,256.9502,211.9922,246.9502,215.9922,250.9502,211.9922" style="stroke:#181818;stroke-width:1;"/><line style="stroke:#181818;stroke-width:1;" x1="44.0015" x2="252.9502" y1="211.9922" y2="211.9922"/><text fill="#000000" font-family="sans-serif" font-size="13" lengthAdjust="spacing" textLength="144.9106" x="51.0015" y="206.9263">/submit install module</text></g><g class="message" data-entity-1="part3" data-entity-2="part4" data-source-line="10" id="msg6"><polygon fill="#181818" points="371.7051,237.125,381.7051,241.125,371.7051,245.125,375.7051,241.125" style="stroke:#181818;stroke-width:1;"/><line style="stroke:#181818;stroke-width:1;" x1="258.9502" x2="377.7051" y1="241.125" y2="241.125"/><text fill="#000000" font-family="sans-serif" font-size="13" lengthAdjust="spacing" textLength="54.1836" x="265.9502" y="236.0591">initialize</text></g><g class="message" data-entity-1="part2" data-entity-2="part3" data-source-line="12" id="msg7"><polygon fill="#181818" points="246.9502,291.2578,256.9502,295.2578,246.9502,299.2578,250.9502,295.2578" style="stroke:#181818;stroke-width:1;"/><line style="stroke:#181818;stroke-width:1;" x1="111.958" x2="252.9502" y1="295.2578" y2="295.2578"/><text fill="#000000" font-family="sans-serif" font-size="13" lengthAdjust="spacing" textLength="122.9922" x="118.958" y="290.1919">/submit call "hello"</text></g><g class="message" data-entity-1="part3" data-entity-2="part4" data-source-line="13" id="msg8"><polygon fill="#181818" points="371.7051,320.3906,381.7051,324.3906,371.7051,328.3906,375.7051,324.3906" style="stroke:#181818;stroke-width:1;"/><line style="stroke:#181818;stroke-width:1;" x1="258.9502" x2="377.7051" y1="324.3906" y2="324.3906"/><text fill="#000000" font-family="sans-serif" font-size="13" lengthAdjust="spacing" textLength="31.4146" x="265.9502" y="319.3247">hello</text></g><g class="message" data-entity-1="part4" data-entity-2="part3" data-source-line="14" id="msg9"><polygon fill="#181818" points="269.9502,349.5234,259.9502,353.5234,269.9502,357.5234,265.9502,353.5234" style="stroke:#181818;stroke-width:1;"/><line style="stroke:#181818;stroke-width:1;stroke-dasharray:2,2;" x1="263.9502" x2="382.7051" y1="353.5234" y2="353.5234"/><text fill="#000000" font-family="sans-serif" font-size="13" lengthAdjust="spacing" textLength="90.0479" x="275.9502" y="348.4575">"Hello world!"</text></g><g class="message" data-entity-1="part3" data-entity-2="part2" data-source-line="15" id="msg10"><polygon fill="#181818" points="122.958,378.6563,112.958,382.6563,122.958,386.6563,118.958,382.6563" style="stroke:#181818;stroke-width:1;"/><line style="stroke:#181818;stroke-width:1;stroke-dasharray:2,2;" x1="116.958" x2="257.9502" y1="382.6563" y2="382.6563"/><text fill="#000000" font-family="sans-serif" font-size="13" lengthAdjust="spacing" textLength="92.2695" x="128.958" y="377.5903">"Hello World!"</text></g><?plantuml-src XP0n3i8m34LtJc6oLwWh0fOom04GiqajOIbDgiG12VNmf6ae4Xt8alZx_MyvgCLvEDA3ZEl9ho0TpDebbB97BwovHokWpbR8Mn9eNDV7z5Q00SxDacpGSaW0r1b9PPsXUHPKXsI4BMn2l7Kie3sX4EXYp7JHPdSo9DjO9kFK_4dTLTKK-ycfkDt_6yqs21e3dMkZeUKajYoCXbzJRnY6V8z_j5nZ359tCiQfPLBMi-n9ehUWJgC2J-TDkrRVs7cF0bmdu0q0?></g></svg>